<svg width="345" height="356" viewBox="0 0 345 356" fill="none" xmlns="http://www.w3.org/2000/svg">
<path opacity="0.6" d="M51.6992 286.467H58.4375V288H49.8145V273.781H51.6992V286.467ZM59.8145 282.619C59.8145 281.584 60.0163 280.653 60.4199 279.826C60.8301 278.999 61.3965 278.361 62.1191 277.912C62.8483 277.463 63.6784 277.238 64.6094 277.238C66.0482 277.238 67.2103 277.736 68.0957 278.732C68.9876 279.729 69.4336 281.053 69.4336 282.707V282.834C69.4336 283.863 69.235 284.787 68.8379 285.607C68.4473 286.421 67.8841 287.056 67.1484 287.512C66.4193 287.967 65.5794 288.195 64.6289 288.195C63.1966 288.195 62.0345 287.697 61.1426 286.701C60.2572 285.705 59.8145 284.387 59.8145 282.746V282.619ZM61.6309 282.834C61.6309 284.006 61.901 284.947 62.4414 285.656C62.9883 286.366 63.7174 286.721 64.6289 286.721C65.5469 286.721 66.276 286.363 66.8164 285.646C67.3568 284.924 67.627 283.915 67.627 282.619C67.627 281.46 67.3503 280.523 66.7969 279.807C66.25 279.084 65.5208 278.723 64.6094 278.723C63.7174 278.723 62.998 279.077 62.4512 279.787C61.9043 280.497 61.6309 281.512 61.6309 282.834ZM76.8066 279.055C76.5332 279.009 76.237 278.986 75.918 278.986C74.7331 278.986 73.929 279.491 73.5059 280.5V288H71.6992V277.434H73.457L73.4863 278.654C74.0788 277.71 74.9186 277.238 76.0059 277.238C76.3574 277.238 76.6243 277.284 76.8066 277.375V279.055ZM82.666 288.195C81.2337 288.195 80.0684 287.727 79.1699 286.789C78.2715 285.845 77.8223 284.585 77.8223 283.01V282.678C77.8223 281.63 78.0208 280.695 78.418 279.875C78.8216 279.048 79.3815 278.404 80.0977 277.941C80.8203 277.473 81.6016 277.238 82.4414 277.238C83.8151 277.238 84.8828 277.691 85.6445 278.596C86.4062 279.501 86.7871 280.796 86.7871 282.482V283.234H79.6289C79.6549 284.276 79.9577 285.119 80.5371 285.764C81.123 286.402 81.8652 286.721 82.7637 286.721C83.4017 286.721 83.9421 286.59 84.3848 286.33C84.8275 286.07 85.2148 285.725 85.5469 285.295L86.6504 286.154C85.765 287.515 84.4368 288.195 82.666 288.195ZM82.4414 278.723C81.7122 278.723 81.1003 278.99 80.6055 279.523C80.1107 280.051 79.8047 280.793 79.6875 281.75H84.9805V281.613C84.9284 280.695 84.681 279.986 84.2383 279.484C83.7956 278.977 83.1966 278.723 82.4414 278.723ZM90.5859 277.434L90.6348 278.605C91.4095 277.694 92.4544 277.238 93.7695 277.238C95.2474 277.238 96.2533 277.805 96.7871 278.938C97.1387 278.43 97.5944 278.02 98.1543 277.707C98.7207 277.395 99.388 277.238 100.156 277.238C102.474 277.238 103.652 278.465 103.691 280.92V288H101.885V281.027C101.885 280.272 101.712 279.709 101.367 279.338C101.022 278.96 100.443 278.771 99.6289 278.771C98.9583 278.771 98.4017 278.973 97.959 279.377C97.5163 279.774 97.2591 280.311 97.1875 280.988V288H95.3711V281.076C95.3711 279.54 94.6191 278.771 93.1152 278.771C91.9303 278.771 91.1198 279.276 90.6836 280.285V288H88.877V277.434H90.5859ZM113.35 288H111.543V277.434H113.35V288ZM111.396 274.631C111.396 274.338 111.484 274.09 111.66 273.889C111.842 273.687 112.109 273.586 112.461 273.586C112.812 273.586 113.079 273.687 113.262 273.889C113.444 274.09 113.535 274.338 113.535 274.631C113.535 274.924 113.444 275.168 113.262 275.363C113.079 275.559 112.812 275.656 112.461 275.656C112.109 275.656 111.842 275.559 111.66 275.363C111.484 275.168 111.396 274.924 111.396 274.631ZM125.176 282.834C125.176 284.442 124.808 285.738 124.072 286.721C123.337 287.704 122.34 288.195 121.084 288.195C119.801 288.195 118.792 287.788 118.057 286.975V292.062H116.25V277.434H117.9L117.988 278.605C118.724 277.694 119.746 277.238 121.055 277.238C122.324 277.238 123.327 277.717 124.062 278.674C124.805 279.631 125.176 280.962 125.176 282.668V282.834ZM123.369 282.629C123.369 281.438 123.115 280.497 122.607 279.807C122.1 279.117 121.403 278.771 120.518 278.771C119.424 278.771 118.604 279.257 118.057 280.227V285.275C118.597 286.239 119.424 286.721 120.537 286.721C121.403 286.721 122.09 286.379 122.598 285.695C123.112 285.005 123.369 283.983 123.369 282.629ZM133.633 285.197C133.633 284.709 133.447 284.331 133.076 284.064C132.712 283.791 132.07 283.557 131.152 283.361C130.241 283.166 129.515 282.932 128.975 282.658C128.441 282.385 128.044 282.059 127.783 281.682C127.529 281.304 127.402 280.855 127.402 280.334C127.402 279.468 127.767 278.736 128.496 278.137C129.232 277.538 130.169 277.238 131.309 277.238C132.507 277.238 133.477 277.548 134.219 278.166C134.967 278.785 135.342 279.576 135.342 280.539H133.525C133.525 280.044 133.314 279.618 132.891 279.26C132.474 278.902 131.947 278.723 131.309 278.723C130.651 278.723 130.137 278.866 129.766 279.152C129.395 279.439 129.209 279.813 129.209 280.275C129.209 280.712 129.382 281.04 129.727 281.262C130.072 281.483 130.693 281.695 131.592 281.896C132.497 282.098 133.229 282.339 133.789 282.619C134.349 282.899 134.762 283.238 135.029 283.635C135.303 284.025 135.439 284.504 135.439 285.07C135.439 286.014 135.062 286.773 134.307 287.346C133.551 287.912 132.572 288.195 131.367 288.195C130.521 288.195 129.772 288.046 129.121 287.746C128.47 287.447 127.959 287.03 127.588 286.496C127.223 285.956 127.041 285.373 127.041 284.748H128.848C128.88 285.354 129.121 285.835 129.57 286.193C130.026 286.545 130.625 286.721 131.367 286.721C132.051 286.721 132.598 286.584 133.008 286.311C133.424 286.031 133.633 285.66 133.633 285.197ZM144.316 286.955C143.613 287.782 142.581 288.195 141.221 288.195C140.094 288.195 139.235 287.87 138.643 287.219C138.057 286.561 137.76 285.591 137.754 284.309V277.434H139.561V284.26C139.561 285.861 140.212 286.662 141.514 286.662C142.894 286.662 143.812 286.148 144.268 285.119V277.434H146.074V288H144.355L144.316 286.955ZM150.527 277.434L150.576 278.605C151.351 277.694 152.396 277.238 153.711 277.238C155.189 277.238 156.195 277.805 156.729 278.938C157.08 278.43 157.536 278.02 158.096 277.707C158.662 277.395 159.329 277.238 160.098 277.238C162.415 277.238 163.594 278.465 163.633 280.92V288H161.826V281.027C161.826 280.272 161.654 279.709 161.309 279.338C160.964 278.96 160.384 278.771 159.57 278.771C158.9 278.771 158.343 278.973 157.9 279.377C157.458 279.774 157.201 280.311 157.129 280.988V288H155.312V281.076C155.312 279.54 154.561 278.771 153.057 278.771C151.872 278.771 151.061 279.276 150.625 280.285V288H148.818V277.434H150.527ZM170.889 282.629C170.889 281.008 171.273 279.706 172.041 278.723C172.809 277.733 173.815 277.238 175.059 277.238C176.296 277.238 177.275 277.661 177.998 278.508V273H179.805V288H178.145L178.057 286.867C177.334 287.753 176.328 288.195 175.039 288.195C173.815 288.195 172.816 287.694 172.041 286.691C171.273 285.689 170.889 284.38 170.889 282.766V282.629ZM172.695 282.834C172.695 284.032 172.943 284.969 173.438 285.646C173.932 286.324 174.616 286.662 175.488 286.662C176.634 286.662 177.471 286.148 177.998 285.119V280.266C177.458 279.27 176.628 278.771 175.508 278.771C174.622 278.771 173.932 279.113 173.438 279.797C172.943 280.48 172.695 281.493 172.695 282.834ZM182.139 282.619C182.139 281.584 182.34 280.653 182.744 279.826C183.154 278.999 183.721 278.361 184.443 277.912C185.173 277.463 186.003 277.238 186.934 277.238C188.372 277.238 189.535 277.736 190.42 278.732C191.312 279.729 191.758 281.053 191.758 282.707V282.834C191.758 283.863 191.559 284.787 191.162 285.607C190.771 286.421 190.208 287.056 189.473 287.512C188.743 287.967 187.904 288.195 186.953 288.195C185.521 288.195 184.359 287.697 183.467 286.701C182.581 285.705 182.139 284.387 182.139 282.746V282.619ZM183.955 282.834C183.955 284.006 184.225 284.947 184.766 285.656C185.312 286.366 186.042 286.721 186.953 286.721C187.871 286.721 188.6 286.363 189.141 285.646C189.681 284.924 189.951 283.915 189.951 282.619C189.951 281.46 189.674 280.523 189.121 279.807C188.574 279.084 187.845 278.723 186.934 278.723C186.042 278.723 185.322 279.077 184.775 279.787C184.229 280.497 183.955 281.512 183.955 282.834ZM195.986 288H194.18V273H195.986V288ZM198.408 282.619C198.408 281.584 198.61 280.653 199.014 279.826C199.424 278.999 199.99 278.361 200.713 277.912C201.442 277.463 202.272 277.238 203.203 277.238C204.642 277.238 205.804 277.736 206.689 278.732C207.581 279.729 208.027 281.053 208.027 282.707V282.834C208.027 283.863 207.829 284.787 207.432 285.607C207.041 286.421 206.478 287.056 205.742 287.512C205.013 287.967 204.173 288.195 203.223 288.195C201.79 288.195 200.628 287.697 199.736 286.701C198.851 285.705 198.408 284.387 198.408 282.746V282.619ZM200.225 282.834C200.225 284.006 200.495 284.947 201.035 285.656C201.582 286.366 202.311 286.721 203.223 286.721C204.141 286.721 204.87 286.363 205.41 285.646C205.951 284.924 206.221 283.915 206.221 282.619C206.221 281.46 205.944 280.523 205.391 279.807C204.844 279.084 204.115 278.723 203.203 278.723C202.311 278.723 201.592 279.077 201.045 279.787C200.498 280.497 200.225 281.512 200.225 282.834ZM215.4 279.055C215.127 279.009 214.831 278.986 214.512 278.986C213.327 278.986 212.523 279.491 212.1 280.5V288H210.293V277.434H212.051L212.08 278.654C212.673 277.71 213.512 277.238 214.6 277.238C214.951 277.238 215.218 277.284 215.4 277.375V279.055ZM228.184 285.197C228.184 284.709 227.998 284.331 227.627 284.064C227.262 283.791 226.621 283.557 225.703 283.361C224.792 283.166 224.066 282.932 223.525 282.658C222.992 282.385 222.594 282.059 222.334 281.682C222.08 281.304 221.953 280.855 221.953 280.334C221.953 279.468 222.318 278.736 223.047 278.137C223.783 277.538 224.72 277.238 225.859 277.238C227.057 277.238 228.027 277.548 228.77 278.166C229.518 278.785 229.893 279.576 229.893 280.539H228.076C228.076 280.044 227.865 279.618 227.441 279.26C227.025 278.902 226.497 278.723 225.859 278.723C225.202 278.723 224.688 278.866 224.316 279.152C223.945 279.439 223.76 279.813 223.76 280.275C223.76 280.712 223.932 281.04 224.277 281.262C224.622 281.483 225.244 281.695 226.143 281.896C227.048 282.098 227.78 282.339 228.34 282.619C228.9 282.899 229.313 283.238 229.58 283.635C229.854 284.025 229.99 284.504 229.99 285.07C229.99 286.014 229.613 286.773 228.857 287.346C228.102 287.912 227.122 288.195 225.918 288.195C225.072 288.195 224.323 288.046 223.672 287.746C223.021 287.447 222.51 287.03 222.139 286.496C221.774 285.956 221.592 285.373 221.592 284.748H223.398C223.431 285.354 223.672 285.835 224.121 286.193C224.577 286.545 225.176 286.721 225.918 286.721C226.602 286.721 227.148 286.584 227.559 286.311C227.975 286.031 228.184 285.66 228.184 285.197ZM234.307 288H232.5V277.434H234.307V288ZM232.354 274.631C232.354 274.338 232.441 274.09 232.617 273.889C232.799 273.687 233.066 273.586 233.418 273.586C233.77 273.586 234.036 273.687 234.219 273.889C234.401 274.09 234.492 274.338 234.492 274.631C234.492 274.924 234.401 275.168 234.219 275.363C234.036 275.559 233.77 275.656 233.418 275.656C233.066 275.656 232.799 275.559 232.617 275.363C232.441 275.168 232.354 274.924 232.354 274.631ZM239.658 274.875V277.434H241.631V278.83H239.658V285.383C239.658 285.806 239.746 286.125 239.922 286.34C240.098 286.548 240.397 286.652 240.82 286.652C241.029 286.652 241.315 286.613 241.68 286.535V288C241.204 288.13 240.742 288.195 240.293 288.195C239.486 288.195 238.877 287.951 238.467 287.463C238.057 286.975 237.852 286.281 237.852 285.383V278.83H235.928V277.434H237.852V274.875H239.658ZM255.234 288C255.13 287.792 255.046 287.421 254.98 286.887C254.141 287.759 253.138 288.195 251.973 288.195C250.931 288.195 250.075 287.902 249.404 287.316C248.74 286.724 248.408 285.975 248.408 285.07C248.408 283.97 248.825 283.117 249.658 282.512C250.498 281.9 251.676 281.594 253.193 281.594H254.951V280.764C254.951 280.132 254.762 279.631 254.385 279.26C254.007 278.882 253.451 278.693 252.715 278.693C252.07 278.693 251.53 278.856 251.094 279.182C250.658 279.507 250.439 279.901 250.439 280.363H248.623C248.623 279.836 248.809 279.328 249.18 278.84C249.557 278.345 250.065 277.954 250.703 277.668C251.348 277.382 252.054 277.238 252.822 277.238C254.04 277.238 254.993 277.544 255.684 278.156C256.374 278.762 256.732 279.598 256.758 280.666V285.529C256.758 286.499 256.882 287.271 257.129 287.844V288H255.234ZM252.236 286.623C252.803 286.623 253.34 286.477 253.848 286.184C254.355 285.891 254.723 285.51 254.951 285.041V282.873H253.535C251.322 282.873 250.215 283.521 250.215 284.816C250.215 285.383 250.404 285.826 250.781 286.145C251.159 286.464 251.644 286.623 252.236 286.623ZM261.289 277.434L261.338 278.605C262.113 277.694 263.158 277.238 264.473 277.238C265.951 277.238 266.956 277.805 267.49 278.938C267.842 278.43 268.298 278.02 268.857 277.707C269.424 277.395 270.091 277.238 270.859 277.238C273.177 277.238 274.355 278.465 274.395 280.92V288H272.588V281.027C272.588 280.272 272.415 279.709 272.07 279.338C271.725 278.96 271.146 278.771 270.332 278.771C269.661 278.771 269.105 278.973 268.662 279.377C268.219 279.774 267.962 280.311 267.891 280.988V288H266.074V281.076C266.074 279.54 265.322 278.771 263.818 278.771C262.633 278.771 261.823 279.276 261.387 280.285V288H259.58V277.434H261.289ZM281.514 288.195C280.081 288.195 278.916 287.727 278.018 286.789C277.119 285.845 276.67 284.585 276.67 283.01V282.678C276.67 281.63 276.868 280.695 277.266 279.875C277.669 279.048 278.229 278.404 278.945 277.941C279.668 277.473 280.449 277.238 281.289 277.238C282.663 277.238 283.73 277.691 284.492 278.596C285.254 279.501 285.635 280.796 285.635 282.482V283.234H278.477C278.503 284.276 278.805 285.119 279.385 285.764C279.971 286.402 280.713 286.721 281.611 286.721C282.249 286.721 282.79 286.59 283.232 286.33C283.675 286.07 284.062 285.725 284.395 285.295L285.498 286.154C284.613 287.515 283.285 288.195 281.514 288.195ZM281.289 278.723C280.56 278.723 279.948 278.99 279.453 279.523C278.958 280.051 278.652 280.793 278.535 281.75H283.828V281.613C283.776 280.695 283.529 279.986 283.086 279.484C282.643 278.977 282.044 278.723 281.289 278.723ZM290.186 274.875V277.434H292.158V278.83H290.186V285.383C290.186 285.806 290.273 286.125 290.449 286.34C290.625 286.548 290.924 286.652 291.348 286.652C291.556 286.652 291.842 286.613 292.207 286.535V288C291.732 288.13 291.27 288.195 290.82 288.195C290.013 288.195 289.404 287.951 288.994 287.463C288.584 286.975 288.379 286.281 288.379 285.383V278.83H286.455V277.434H288.379V274.875H290.186ZM294.219 290.832L293.193 290.129C293.805 289.276 294.124 288.397 294.15 287.492V285.861H295.918V287.277C295.918 287.935 295.755 288.592 295.43 289.25C295.111 289.908 294.707 290.435 294.219 290.832ZM25.2734 316.721C25.918 316.721 26.4811 316.525 26.9629 316.135C27.4447 315.744 27.7116 315.256 27.7637 314.67H29.4727C29.4401 315.275 29.2318 315.852 28.8477 316.398C28.4635 316.945 27.9492 317.382 27.3047 317.707C26.6667 318.033 25.9896 318.195 25.2734 318.195C23.8346 318.195 22.6888 317.717 21.8359 316.76C20.9896 315.796 20.5664 314.481 20.5664 312.814V312.512C20.5664 311.483 20.7552 310.568 21.1328 309.768C21.5104 308.967 22.0508 308.345 22.7539 307.902C23.4635 307.46 24.3001 307.238 25.2637 307.238C26.4486 307.238 27.4316 307.593 28.2129 308.303C29.0007 309.012 29.4206 309.934 29.4727 311.066H27.7637C27.7116 310.383 27.4512 309.823 26.9824 309.387C26.5202 308.944 25.9473 308.723 25.2637 308.723C24.3457 308.723 23.6328 309.055 23.125 309.719C22.6237 310.376 22.373 311.33 22.373 312.58V312.922C22.373 314.139 22.6237 315.077 23.125 315.734C23.6263 316.392 24.3424 316.721 25.2734 316.721ZM31.0254 312.619C31.0254 311.584 31.2272 310.653 31.6309 309.826C32.041 308.999 32.6074 308.361 33.3301 307.912C34.0592 307.463 34.8893 307.238 35.8203 307.238C37.2591 307.238 38.4212 307.736 39.3066 308.732C40.1986 309.729 40.6445 311.053 40.6445 312.707V312.834C40.6445 313.863 40.446 314.787 40.0488 315.607C39.6582 316.421 39.0951 317.056 38.3594 317.512C37.6302 317.967 36.7904 318.195 35.8398 318.195C34.4076 318.195 33.2454 317.697 32.3535 316.701C31.4681 315.705 31.0254 314.387 31.0254 312.746V312.619ZM32.8418 312.834C32.8418 314.006 33.112 314.947 33.6523 315.656C34.1992 316.366 34.9284 316.721 35.8398 316.721C36.7578 316.721 37.487 316.363 38.0273 315.646C38.5677 314.924 38.8379 313.915 38.8379 312.619C38.8379 311.46 38.5612 310.523 38.0078 309.807C37.4609 309.084 36.7318 308.723 35.8203 308.723C34.9284 308.723 34.209 309.077 33.6621 309.787C33.1152 310.497 32.8418 311.512 32.8418 312.834ZM44.6191 307.434L44.6777 308.762C45.485 307.746 46.5397 307.238 47.8418 307.238C50.0749 307.238 51.2012 308.498 51.2207 311.018V318H49.4141V311.008C49.4076 310.246 49.2318 309.683 48.8867 309.318C48.5482 308.954 48.0176 308.771 47.2949 308.771C46.709 308.771 46.1947 308.928 45.752 309.24C45.3092 309.553 44.9642 309.963 44.7168 310.471V318H42.9102V307.434H44.6191ZM60.0977 315.197C60.0977 314.709 59.9121 314.331 59.541 314.064C59.1764 313.791 58.5352 313.557 57.6172 313.361C56.7057 313.166 55.9798 312.932 55.4395 312.658C54.9056 312.385 54.5085 312.059 54.248 311.682C53.9941 311.304 53.8672 310.855 53.8672 310.334C53.8672 309.468 54.2318 308.736 54.9609 308.137C55.6966 307.538 56.6341 307.238 57.7734 307.238C58.9714 307.238 59.9414 307.548 60.6836 308.166C61.4323 308.785 61.8066 309.576 61.8066 310.539H59.9902C59.9902 310.044 59.7786 309.618 59.3555 309.26C58.9388 308.902 58.4115 308.723 57.7734 308.723C57.1159 308.723 56.6016 308.866 56.2305 309.152C55.8594 309.439 55.6738 309.813 55.6738 310.275C55.6738 310.712 55.8464 311.04 56.1914 311.262C56.5365 311.483 57.1582 311.695 58.0566 311.896C58.9616 312.098 59.694 312.339 60.2539 312.619C60.8138 312.899 61.2272 313.238 61.4941 313.635C61.7676 314.025 61.9043 314.504 61.9043 315.07C61.9043 316.014 61.5267 316.773 60.7715 317.346C60.0163 317.912 59.0365 318.195 57.832 318.195C56.9857 318.195 56.237 318.046 55.5859 317.746C54.9349 317.447 54.4238 317.03 54.0527 316.496C53.6882 315.956 53.5059 315.373 53.5059 314.748H55.3125C55.3451 315.354 55.5859 315.835 56.0352 316.193C56.4909 316.545 57.0898 316.721 57.832 316.721C58.5156 316.721 59.0625 316.584 59.4727 316.311C59.8893 316.031 60.0977 315.66 60.0977 315.197ZM68.6426 318.195C67.2103 318.195 66.0449 317.727 65.1465 316.789C64.248 315.845 63.7988 314.585 63.7988 313.01V312.678C63.7988 311.63 63.9974 310.695 64.3945 309.875C64.7982 309.048 65.3581 308.404 66.0742 307.941C66.7969 307.473 67.5781 307.238 68.418 307.238C69.7917 307.238 70.8594 307.691 71.6211 308.596C72.3828 309.501 72.7637 310.796 72.7637 312.482V313.234H65.6055C65.6315 314.276 65.9342 315.119 66.5137 315.764C67.0996 316.402 67.8418 316.721 68.7402 316.721C69.3783 316.721 69.9186 316.59 70.3613 316.33C70.804 316.07 71.1914 315.725 71.5234 315.295L72.627 316.154C71.7415 317.515 70.4134 318.195 68.6426 318.195ZM68.418 308.723C67.6888 308.723 67.0768 308.99 66.582 309.523C66.0872 310.051 65.7812 310.793 65.6641 311.75H70.957V311.613C70.9049 310.695 70.6576 309.986 70.2148 309.484C69.7721 308.977 69.1732 308.723 68.418 308.723ZM79.1016 316.721C79.7461 316.721 80.3092 316.525 80.791 316.135C81.2728 315.744 81.5397 315.256 81.5918 314.67H83.3008C83.2682 315.275 83.0599 315.852 82.6758 316.398C82.2917 316.945 81.7773 317.382 81.1328 317.707C80.4948 318.033 79.8177 318.195 79.1016 318.195C77.6628 318.195 76.5169 317.717 75.6641 316.76C74.8177 315.796 74.3945 314.481 74.3945 312.814V312.512C74.3945 311.483 74.5833 310.568 74.9609 309.768C75.3385 308.967 75.8789 308.345 76.582 307.902C77.2917 307.46 78.1283 307.238 79.0918 307.238C80.2767 307.238 81.2598 307.593 82.041 308.303C82.8288 309.012 83.2487 309.934 83.3008 311.066H81.5918C81.5397 310.383 81.2793 309.823 80.8105 309.387C80.3483 308.944 79.7754 308.723 79.0918 308.723C78.1738 308.723 77.4609 309.055 76.9531 309.719C76.4518 310.376 76.2012 311.33 76.2012 312.58V312.922C76.2012 314.139 76.4518 315.077 76.9531 315.734C77.4544 316.392 78.1706 316.721 79.1016 316.721ZM87.7832 304.875V307.434H89.7559V308.83H87.7832V315.383C87.7832 315.806 87.8711 316.125 88.0469 316.34C88.2227 316.548 88.5221 316.652 88.9453 316.652C89.1536 316.652 89.4401 316.613 89.8047 316.535V318C89.3294 318.13 88.8672 318.195 88.418 318.195C87.6107 318.195 87.002 317.951 86.5918 317.463C86.1816 316.975 85.9766 316.281 85.9766 315.383V308.83H84.0527V307.434H85.9766V304.875H87.7832ZM96.2598 318.195C94.8275 318.195 93.6621 317.727 92.7637 316.789C91.8652 315.845 91.416 314.585 91.416 313.01V312.678C91.416 311.63 91.6146 310.695 92.0117 309.875C92.4154 309.048 92.9753 308.404 93.6914 307.941C94.4141 307.473 95.1953 307.238 96.0352 307.238C97.4089 307.238 98.4766 307.691 99.2383 308.596C100 309.501 100.381 310.796 100.381 312.482V313.234H93.2227C93.2487 314.276 93.5514 315.119 94.1309 315.764C94.7168 316.402 95.459 316.721 96.3574 316.721C96.9954 316.721 97.5358 316.59 97.9785 316.33C98.4212 316.07 98.8086 315.725 99.1406 315.295L100.244 316.154C99.3587 317.515 98.0306 318.195 96.2598 318.195ZM96.0352 308.723C95.306 308.723 94.694 308.99 94.1992 309.523C93.7044 310.051 93.3984 310.793 93.2812 311.75H98.5742V311.613C98.5221 310.695 98.2747 309.986 97.832 309.484C97.3893 308.977 96.7904 308.723 96.0352 308.723ZM104.932 304.875V307.434H106.904V308.83H104.932V315.383C104.932 315.806 105.02 316.125 105.195 316.34C105.371 316.548 105.671 316.652 106.094 316.652C106.302 316.652 106.589 316.613 106.953 316.535V318C106.478 318.13 106.016 318.195 105.566 318.195C104.759 318.195 104.15 317.951 103.74 317.463C103.33 316.975 103.125 316.281 103.125 315.383V308.83H101.201V307.434H103.125V304.875H104.932ZM115.547 316.955C114.844 317.782 113.812 318.195 112.451 318.195C111.325 318.195 110.465 317.87 109.873 317.219C109.287 316.561 108.991 315.591 108.984 314.309V307.434H110.791V314.26C110.791 315.861 111.442 316.662 112.744 316.662C114.124 316.662 115.042 316.148 115.498 315.119V307.434H117.305V318H115.586L115.547 316.955ZM125.166 309.055C124.893 309.009 124.596 308.986 124.277 308.986C123.092 308.986 122.288 309.491 121.865 310.5V318H120.059V307.434H121.816L121.846 308.654C122.438 307.71 123.278 307.238 124.365 307.238C124.717 307.238 124.984 307.284 125.166 307.375V309.055ZM138.32 318C138.216 317.792 138.132 317.421 138.066 316.887C137.227 317.759 136.224 318.195 135.059 318.195C134.017 318.195 133.161 317.902 132.49 317.316C131.826 316.724 131.494 315.975 131.494 315.07C131.494 313.97 131.911 313.117 132.744 312.512C133.584 311.9 134.762 311.594 136.279 311.594H138.037V310.764C138.037 310.132 137.848 309.631 137.471 309.26C137.093 308.882 136.536 308.693 135.801 308.693C135.156 308.693 134.616 308.856 134.18 309.182C133.743 309.507 133.525 309.901 133.525 310.363H131.709C131.709 309.836 131.895 309.328 132.266 308.84C132.643 308.345 133.151 307.954 133.789 307.668C134.434 307.382 135.14 307.238 135.908 307.238C137.126 307.238 138.079 307.544 138.77 308.156C139.46 308.762 139.818 309.598 139.844 310.666V315.529C139.844 316.499 139.967 317.271 140.215 317.844V318H138.32ZM135.322 316.623C135.889 316.623 136.426 316.477 136.934 316.184C137.441 315.891 137.809 315.51 138.037 315.041V312.873H136.621C134.408 312.873 133.301 313.521 133.301 314.816C133.301 315.383 133.49 315.826 133.867 316.145C134.245 316.464 134.73 316.623 135.322 316.623ZM142.236 312.629C142.236 311.008 142.62 309.706 143.389 308.723C144.157 307.733 145.163 307.238 146.406 307.238C147.643 307.238 148.623 307.661 149.346 308.508V303H151.152V318H149.492L149.404 316.867C148.682 317.753 147.676 318.195 146.387 318.195C145.163 318.195 144.163 317.694 143.389 316.691C142.62 315.689 142.236 314.38 142.236 312.766V312.629ZM144.043 312.834C144.043 314.032 144.29 314.969 144.785 315.646C145.28 316.324 145.964 316.662 146.836 316.662C147.982 316.662 148.818 316.148 149.346 315.119V310.266C148.805 309.27 147.975 308.771 146.855 308.771C145.97 308.771 145.28 309.113 144.785 309.797C144.29 310.48 144.043 311.493 144.043 312.834ZM155.928 318H154.121V307.434H155.928V318ZM153.975 304.631C153.975 304.338 154.062 304.09 154.238 303.889C154.421 303.687 154.688 303.586 155.039 303.586C155.391 303.586 155.658 303.687 155.84 303.889C156.022 304.09 156.113 304.338 156.113 304.631C156.113 304.924 156.022 305.168 155.84 305.363C155.658 305.559 155.391 305.656 155.039 305.656C154.688 305.656 154.421 305.559 154.238 305.363C154.062 305.168 153.975 304.924 153.975 304.631ZM167.754 312.834C167.754 314.442 167.386 315.738 166.65 316.721C165.915 317.704 164.919 318.195 163.662 318.195C162.38 318.195 161.37 317.788 160.635 316.975V322.062H158.828V307.434H160.479L160.566 308.605C161.302 307.694 162.324 307.238 163.633 307.238C164.902 307.238 165.905 307.717 166.641 308.674C167.383 309.631 167.754 310.962 167.754 312.668V312.834ZM165.947 312.629C165.947 311.438 165.693 310.497 165.186 309.807C164.678 309.117 163.981 308.771 163.096 308.771C162.002 308.771 161.182 309.257 160.635 310.227V315.275C161.175 316.239 162.002 316.721 163.115 316.721C163.981 316.721 164.668 316.379 165.176 315.695C165.69 315.005 165.947 313.983 165.947 312.629ZM172.021 318H170.215V307.434H172.021V318ZM170.068 304.631C170.068 304.338 170.156 304.09 170.332 303.889C170.514 303.687 170.781 303.586 171.133 303.586C171.484 303.586 171.751 303.687 171.934 303.889C172.116 304.09 172.207 304.338 172.207 304.631C172.207 304.924 172.116 305.168 171.934 305.363C171.751 305.559 171.484 305.656 171.133 305.656C170.781 305.656 170.514 305.559 170.332 305.363C170.156 305.168 170.068 304.924 170.068 304.631ZM181.074 315.197C181.074 314.709 180.889 314.331 180.518 314.064C180.153 313.791 179.512 313.557 178.594 313.361C177.682 313.166 176.956 312.932 176.416 312.658C175.882 312.385 175.485 312.059 175.225 311.682C174.971 311.304 174.844 310.855 174.844 310.334C174.844 309.468 175.208 308.736 175.938 308.137C176.673 307.538 177.611 307.238 178.75 307.238C179.948 307.238 180.918 307.548 181.66 308.166C182.409 308.785 182.783 309.576 182.783 310.539H180.967C180.967 310.044 180.755 309.618 180.332 309.26C179.915 308.902 179.388 308.723 178.75 308.723C178.092 308.723 177.578 308.866 177.207 309.152C176.836 309.439 176.65 309.813 176.65 310.275C176.65 310.712 176.823 311.04 177.168 311.262C177.513 311.483 178.135 311.695 179.033 311.896C179.938 312.098 180.671 312.339 181.23 312.619C181.79 312.899 182.204 313.238 182.471 313.635C182.744 314.025 182.881 314.504 182.881 315.07C182.881 316.014 182.503 316.773 181.748 317.346C180.993 317.912 180.013 318.195 178.809 318.195C177.962 318.195 177.214 318.046 176.562 317.746C175.911 317.447 175.4 317.03 175.029 316.496C174.665 315.956 174.482 315.373 174.482 314.748H176.289C176.322 315.354 176.562 315.835 177.012 316.193C177.467 316.545 178.066 316.721 178.809 316.721C179.492 316.721 180.039 316.584 180.449 316.311C180.866 316.031 181.074 315.66 181.074 315.197ZM189.473 316.721C190.117 316.721 190.68 316.525 191.162 316.135C191.644 315.744 191.911 315.256 191.963 314.67H193.672C193.639 315.275 193.431 315.852 193.047 316.398C192.663 316.945 192.148 317.382 191.504 317.707C190.866 318.033 190.189 318.195 189.473 318.195C188.034 318.195 186.888 317.717 186.035 316.76C185.189 315.796 184.766 314.481 184.766 312.814V312.512C184.766 311.483 184.954 310.568 185.332 309.768C185.71 308.967 186.25 308.345 186.953 307.902C187.663 307.46 188.499 307.238 189.463 307.238C190.648 307.238 191.631 307.593 192.412 308.303C193.2 309.012 193.62 309.934 193.672 311.066H191.963C191.911 310.383 191.65 309.823 191.182 309.387C190.719 308.944 190.146 308.723 189.463 308.723C188.545 308.723 187.832 309.055 187.324 309.719C186.823 310.376 186.572 311.33 186.572 312.58V312.922C186.572 314.139 186.823 315.077 187.324 315.734C187.826 316.392 188.542 316.721 189.473 316.721ZM197.666 318H195.859V307.434H197.666V318ZM195.713 304.631C195.713 304.338 195.801 304.09 195.977 303.889C196.159 303.687 196.426 303.586 196.777 303.586C197.129 303.586 197.396 303.687 197.578 303.889C197.76 304.09 197.852 304.338 197.852 304.631C197.852 304.924 197.76 305.168 197.578 305.363C197.396 305.559 197.129 305.656 196.777 305.656C196.426 305.656 196.159 305.559 195.977 305.363C195.801 305.168 195.713 304.924 195.713 304.631ZM202.275 307.434L202.334 308.762C203.141 307.746 204.196 307.238 205.498 307.238C207.731 307.238 208.857 308.498 208.877 311.018V318H207.07V311.008C207.064 310.246 206.888 309.683 206.543 309.318C206.204 308.954 205.674 308.771 204.951 308.771C204.365 308.771 203.851 308.928 203.408 309.24C202.965 309.553 202.62 309.963 202.373 310.471V318H200.566V307.434H202.275ZM211.172 312.629C211.172 310.982 211.553 309.673 212.314 308.703C213.076 307.727 214.085 307.238 215.342 307.238C216.631 307.238 217.637 307.694 218.359 308.605L218.447 307.434H220.098V317.746C220.098 319.113 219.691 320.191 218.877 320.979C218.07 321.766 216.982 322.16 215.615 322.16C214.854 322.16 214.108 321.997 213.379 321.672C212.65 321.346 212.093 320.9 211.709 320.334L212.646 319.25C213.421 320.207 214.368 320.686 215.488 320.686C216.367 320.686 217.051 320.438 217.539 319.943C218.034 319.449 218.281 318.752 218.281 317.854V316.945C217.559 317.779 216.572 318.195 215.322 318.195C214.085 318.195 213.083 317.697 212.314 316.701C211.553 315.705 211.172 314.348 211.172 312.629ZM212.988 312.834C212.988 314.025 213.232 314.963 213.721 315.646C214.209 316.324 214.893 316.662 215.771 316.662C216.911 316.662 217.747 316.145 218.281 315.109V310.285C217.728 309.276 216.898 308.771 215.791 308.771C214.912 308.771 214.225 309.113 213.73 309.797C213.236 310.48 212.988 311.493 212.988 312.834ZM232.178 318.195C230.745 318.195 229.58 317.727 228.682 316.789C227.783 315.845 227.334 314.585 227.334 313.01V312.678C227.334 311.63 227.533 310.695 227.93 309.875C228.333 309.048 228.893 308.404 229.609 307.941C230.332 307.473 231.113 307.238 231.953 307.238C233.327 307.238 234.395 307.691 235.156 308.596C235.918 309.501 236.299 310.796 236.299 312.482V313.234H229.141C229.167 314.276 229.469 315.119 230.049 315.764C230.635 316.402 231.377 316.721 232.275 316.721C232.913 316.721 233.454 316.59 233.896 316.33C234.339 316.07 234.727 315.725 235.059 315.295L236.162 316.154C235.277 317.515 233.949 318.195 232.178 318.195ZM231.953 308.723C231.224 308.723 230.612 308.99 230.117 309.523C229.622 310.051 229.316 310.793 229.199 311.75H234.492V311.613C234.44 310.695 234.193 309.986 233.75 309.484C233.307 308.977 232.708 308.723 231.953 308.723ZM240.361 318H238.555V303H240.361V318ZM245.225 318H243.418V307.434H245.225V318ZM243.271 304.631C243.271 304.338 243.359 304.09 243.535 303.889C243.717 303.687 243.984 303.586 244.336 303.586C244.688 303.586 244.954 303.687 245.137 303.889C245.319 304.09 245.41 304.338 245.41 304.631C245.41 304.924 245.319 305.168 245.137 305.363C244.954 305.559 244.688 305.656 244.336 305.656C243.984 305.656 243.717 305.559 243.535 305.363C243.359 305.168 243.271 304.924 243.271 304.631ZM250.576 304.875V307.434H252.549V308.83H250.576V315.383C250.576 315.806 250.664 316.125 250.84 316.34C251.016 316.548 251.315 316.652 251.738 316.652C251.947 316.652 252.233 316.613 252.598 316.535V318C252.122 318.13 251.66 318.195 251.211 318.195C250.404 318.195 249.795 317.951 249.385 317.463C248.975 316.975 248.77 316.281 248.77 315.383V308.83H246.846V307.434H248.77V304.875H250.576ZM254.707 317.053C254.707 316.74 254.798 316.48 254.98 316.271C255.169 316.063 255.449 315.959 255.82 315.959C256.191 315.959 256.471 316.063 256.66 316.271C256.855 316.48 256.953 316.74 256.953 317.053C256.953 317.352 256.855 317.603 256.66 317.805C256.471 318.007 256.191 318.107 255.82 318.107C255.449 318.107 255.169 318.007 254.98 317.805C254.798 317.603 254.707 317.352 254.707 317.053ZM269.893 315.51L273.955 303.781H276.006L270.732 318H269.072L263.809 303.781H265.85L269.893 315.51ZM279.6 318H277.793V307.434H279.6V318ZM277.646 304.631C277.646 304.338 277.734 304.09 277.91 303.889C278.092 303.687 278.359 303.586 278.711 303.586C279.062 303.586 279.329 303.687 279.512 303.889C279.694 304.09 279.785 304.338 279.785 304.631C279.785 304.924 279.694 305.168 279.512 305.363C279.329 305.559 279.062 305.656 278.711 305.656C278.359 305.656 278.092 305.559 277.91 305.363C277.734 305.168 277.646 304.924 277.646 304.631ZM285.986 315.549L288.604 307.434H290.449L286.66 318H285.283L281.455 307.434H283.301L285.986 315.549ZM296.436 318.195C295.003 318.195 293.838 317.727 292.939 316.789C292.041 315.845 291.592 314.585 291.592 313.01V312.678C291.592 311.63 291.79 310.695 292.188 309.875C292.591 309.048 293.151 308.404 293.867 307.941C294.59 307.473 295.371 307.238 296.211 307.238C297.585 307.238 298.652 307.691 299.414 308.596C300.176 309.501 300.557 310.796 300.557 312.482V313.234H293.398C293.424 314.276 293.727 315.119 294.307 315.764C294.893 316.402 295.635 316.721 296.533 316.721C297.171 316.721 297.712 316.59 298.154 316.33C298.597 316.07 298.984 315.725 299.316 315.295L300.42 316.154C299.535 317.515 298.206 318.195 296.436 318.195ZM296.211 308.723C295.482 308.723 294.87 308.99 294.375 309.523C293.88 310.051 293.574 310.793 293.457 311.75H298.75V311.613C298.698 310.695 298.451 309.986 298.008 309.484C297.565 308.977 296.966 308.723 296.211 308.723ZM307.764 309.055C307.49 309.009 307.194 308.986 306.875 308.986C305.69 308.986 304.886 309.491 304.463 310.5V318H302.656V307.434H304.414L304.443 308.654C305.036 307.71 305.876 307.238 306.963 307.238C307.314 307.238 307.581 307.284 307.764 307.375V309.055ZM314.541 309.055C314.268 309.009 313.971 308.986 313.652 308.986C312.467 308.986 311.663 309.491 311.24 310.5V318H309.434V307.434H311.191L311.221 308.654C311.813 307.71 312.653 307.238 313.74 307.238C314.092 307.238 314.359 307.284 314.541 307.375V309.055ZM322.344 318C322.24 317.792 322.155 317.421 322.09 316.887C321.25 317.759 320.247 318.195 319.082 318.195C318.04 318.195 317.184 317.902 316.514 317.316C315.85 316.724 315.518 315.975 315.518 315.07C315.518 313.97 315.934 313.117 316.768 312.512C317.607 311.9 318.786 311.594 320.303 311.594H322.061V310.764C322.061 310.132 321.872 309.631 321.494 309.26C321.117 308.882 320.56 308.693 319.824 308.693C319.18 308.693 318.639 308.856 318.203 309.182C317.767 309.507 317.549 309.901 317.549 310.363H315.732C315.732 309.836 315.918 309.328 316.289 308.84C316.667 308.345 317.174 307.954 317.812 307.668C318.457 307.382 319.163 307.238 319.932 307.238C321.149 307.238 322.103 307.544 322.793 308.156C323.483 308.762 323.841 309.598 323.867 310.666V315.529C323.867 316.499 323.991 317.271 324.238 317.844V318H322.344ZM319.346 316.623C319.912 316.623 320.449 316.477 320.957 316.184C321.465 315.891 321.833 315.51 322.061 315.041V312.873H320.645C318.431 312.873 317.324 313.521 317.324 314.816C317.324 315.383 317.513 315.826 317.891 316.145C318.268 316.464 318.753 316.623 319.346 316.623ZM78.6523 345.197C78.6523 344.709 78.4668 344.331 78.0957 344.064C77.7311 343.791 77.0898 343.557 76.1719 343.361C75.2604 343.166 74.5345 342.932 73.9941 342.658C73.4603 342.385 73.0632 342.059 72.8027 341.682C72.5488 341.304 72.4219 340.855 72.4219 340.334C72.4219 339.468 72.7865 338.736 73.5156 338.137C74.2513 337.538 75.1888 337.238 76.3281 337.238C77.526 337.238 78.4961 337.548 79.2383 338.166C79.987 338.785 80.3613 339.576 80.3613 340.539H78.5449C78.5449 340.044 78.3333 339.618 77.9102 339.26C77.4935 338.902 76.9661 338.723 76.3281 338.723C75.6706 338.723 75.1562 338.866 74.7852 339.152C74.4141 339.439 74.2285 339.813 74.2285 340.275C74.2285 340.712 74.401 341.04 74.7461 341.262C75.0911 341.483 75.7129 341.695 76.6113 341.896C77.5163 342.098 78.2487 342.339 78.8086 342.619C79.3685 342.899 79.7819 343.238 80.0488 343.635C80.3223 344.025 80.459 344.504 80.459 345.07C80.459 346.014 80.0814 346.773 79.3262 347.346C78.571 347.912 77.5911 348.195 76.3867 348.195C75.5404 348.195 74.7917 348.046 74.1406 347.746C73.4896 347.447 72.9785 347.03 72.6074 346.496C72.2428 345.956 72.0605 345.373 72.0605 344.748H73.8672C73.8997 345.354 74.1406 345.835 74.5898 346.193C75.0456 346.545 75.6445 346.721 76.3867 346.721C77.0703 346.721 77.6172 346.584 78.0273 346.311C78.444 346.031 78.6523 345.66 78.6523 345.197ZM89.3359 346.955C88.6328 347.782 87.6009 348.195 86.2402 348.195C85.1139 348.195 84.2546 347.87 83.6621 347.219C83.0762 346.561 82.7799 345.591 82.7734 344.309V337.434H84.5801V344.26C84.5801 345.861 85.2311 346.662 86.5332 346.662C87.9134 346.662 88.8314 346.148 89.2871 345.119V337.434H91.0938V348H89.375L89.3359 346.955ZM100 345.197C100 344.709 99.8145 344.331 99.4434 344.064C99.0788 343.791 98.4375 343.557 97.5195 343.361C96.6081 343.166 95.8822 342.932 95.3418 342.658C94.8079 342.385 94.4108 342.059 94.1504 341.682C93.8965 341.304 93.7695 340.855 93.7695 340.334C93.7695 339.468 94.1341 338.736 94.8633 338.137C95.599 337.538 96.5365 337.238 97.6758 337.238C98.8737 337.238 99.8438 337.548 100.586 338.166C101.335 338.785 101.709 339.576 101.709 340.539H99.8926C99.8926 340.044 99.681 339.618 99.2578 339.26C98.8411 338.902 98.3138 338.723 97.6758 338.723C97.0182 338.723 96.5039 338.866 96.1328 339.152C95.7617 339.439 95.5762 339.813 95.5762 340.275C95.5762 340.712 95.7487 341.04 96.0938 341.262C96.4388 341.483 97.0605 341.695 97.959 341.896C98.8639 342.098 99.5964 342.339 100.156 342.619C100.716 342.899 101.13 343.238 101.396 343.635C101.67 344.025 101.807 344.504 101.807 345.07C101.807 346.014 101.429 346.773 100.674 347.346C99.9186 347.912 98.9388 348.195 97.7344 348.195C96.888 348.195 96.1393 348.046 95.4883 347.746C94.8372 347.447 94.3262 347.03 93.9551 346.496C93.5905 345.956 93.4082 345.373 93.4082 344.748H95.2148C95.2474 345.354 95.4883 345.835 95.9375 346.193C96.3932 346.545 96.9922 346.721 97.7344 346.721C98.418 346.721 98.9648 346.584 99.375 346.311C99.7917 346.031 100 345.66 100 345.197ZM108.398 346.721C109.043 346.721 109.606 346.525 110.088 346.135C110.57 345.744 110.837 345.256 110.889 344.67H112.598C112.565 345.275 112.357 345.852 111.973 346.398C111.589 346.945 111.074 347.382 110.43 347.707C109.792 348.033 109.115 348.195 108.398 348.195C106.96 348.195 105.814 347.717 104.961 346.76C104.115 345.796 103.691 344.481 103.691 342.814V342.512C103.691 341.483 103.88 340.568 104.258 339.768C104.635 338.967 105.176 338.345 105.879 337.902C106.589 337.46 107.425 337.238 108.389 337.238C109.574 337.238 110.557 337.593 111.338 338.303C112.126 339.012 112.546 339.934 112.598 341.066H110.889C110.837 340.383 110.576 339.823 110.107 339.387C109.645 338.944 109.072 338.723 108.389 338.723C107.471 338.723 106.758 339.055 106.25 339.719C105.749 340.376 105.498 341.33 105.498 342.58V342.922C105.498 344.139 105.749 345.077 106.25 345.734C106.751 346.392 107.467 346.721 108.398 346.721ZM116.592 348H114.785V337.434H116.592V348ZM114.639 334.631C114.639 334.338 114.727 334.09 114.902 333.889C115.085 333.687 115.352 333.586 115.703 333.586C116.055 333.586 116.322 333.687 116.504 333.889C116.686 334.09 116.777 334.338 116.777 334.631C116.777 334.924 116.686 335.168 116.504 335.363C116.322 335.559 116.055 335.656 115.703 335.656C115.352 335.656 115.085 335.559 114.902 335.363C114.727 335.168 114.639 334.924 114.639 334.631ZM128.418 342.834C128.418 344.442 128.05 345.738 127.314 346.721C126.579 347.704 125.583 348.195 124.326 348.195C123.044 348.195 122.035 347.788 121.299 346.975V352.062H119.492V337.434H121.143L121.23 338.605C121.966 337.694 122.988 337.238 124.297 337.238C125.566 337.238 126.569 337.717 127.305 338.674C128.047 339.631 128.418 340.962 128.418 342.668V342.834ZM126.611 342.629C126.611 341.438 126.357 340.497 125.85 339.807C125.342 339.117 124.645 338.771 123.76 338.771C122.666 338.771 121.846 339.257 121.299 340.227V345.275C121.839 346.239 122.666 346.721 123.779 346.721C124.645 346.721 125.332 346.379 125.84 345.695C126.354 345.005 126.611 343.983 126.611 342.629ZM132.686 348H130.879V337.434H132.686V348ZM130.732 334.631C130.732 334.338 130.82 334.09 130.996 333.889C131.178 333.687 131.445 333.586 131.797 333.586C132.148 333.586 132.415 333.687 132.598 333.889C132.78 334.09 132.871 334.338 132.871 334.631C132.871 334.924 132.78 335.168 132.598 335.363C132.415 335.559 132.148 335.656 131.797 335.656C131.445 335.656 131.178 335.559 130.996 335.363C130.82 335.168 130.732 334.924 130.732 334.631ZM138.037 334.875V337.434H140.01V338.83H138.037V345.383C138.037 345.806 138.125 346.125 138.301 346.34C138.477 346.548 138.776 346.652 139.199 346.652C139.408 346.652 139.694 346.613 140.059 346.535V348C139.583 348.13 139.121 348.195 138.672 348.195C137.865 348.195 137.256 347.951 136.846 347.463C136.436 346.975 136.23 346.281 136.23 345.383V338.83H134.307V337.434H136.23V334.875H138.037ZM153.613 348C153.509 347.792 153.424 347.421 153.359 346.887C152.52 347.759 151.517 348.195 150.352 348.195C149.31 348.195 148.454 347.902 147.783 347.316C147.119 346.724 146.787 345.975 146.787 345.07C146.787 343.97 147.204 343.117 148.037 342.512C148.877 341.9 150.055 341.594 151.572 341.594H153.33V340.764C153.33 340.132 153.141 339.631 152.764 339.26C152.386 338.882 151.829 338.693 151.094 338.693C150.449 338.693 149.909 338.856 149.473 339.182C149.036 339.507 148.818 339.901 148.818 340.363H147.002C147.002 339.836 147.188 339.328 147.559 338.84C147.936 338.345 148.444 337.954 149.082 337.668C149.727 337.382 150.433 337.238 151.201 337.238C152.419 337.238 153.372 337.544 154.062 338.156C154.753 338.762 155.111 339.598 155.137 340.666V345.529C155.137 346.499 155.26 347.271 155.508 347.844V348H153.613ZM150.615 346.623C151.182 346.623 151.719 346.477 152.227 346.184C152.734 345.891 153.102 345.51 153.33 345.041V342.873H151.914C149.701 342.873 148.594 343.521 148.594 344.816C148.594 345.383 148.783 345.826 149.16 346.145C149.538 346.464 150.023 346.623 150.615 346.623ZM157.529 342.629C157.529 341.008 157.913 339.706 158.682 338.723C159.45 337.733 160.456 337.238 161.699 337.238C162.936 337.238 163.916 337.661 164.639 338.508V333H166.445V348H164.785L164.697 346.867C163.975 347.753 162.969 348.195 161.68 348.195C160.456 348.195 159.456 347.694 158.682 346.691C157.913 345.689 157.529 344.38 157.529 342.766V342.629ZM159.336 342.834C159.336 344.032 159.583 344.969 160.078 345.646C160.573 346.324 161.257 346.662 162.129 346.662C163.275 346.662 164.111 346.148 164.639 345.119V340.266C164.098 339.27 163.268 338.771 162.148 338.771C161.263 338.771 160.573 339.113 160.078 339.797C159.583 340.48 159.336 341.493 159.336 342.834ZM171.221 348H169.414V337.434H171.221V348ZM169.268 334.631C169.268 334.338 169.355 334.09 169.531 333.889C169.714 333.687 169.98 333.586 170.332 333.586C170.684 333.586 170.951 333.687 171.133 333.889C171.315 334.09 171.406 334.338 171.406 334.631C171.406 334.924 171.315 335.168 171.133 335.363C170.951 335.559 170.684 335.656 170.332 335.656C169.98 335.656 169.714 335.559 169.531 335.363C169.355 335.168 169.268 334.924 169.268 334.631ZM183.047 342.834C183.047 344.442 182.679 345.738 181.943 346.721C181.208 347.704 180.212 348.195 178.955 348.195C177.673 348.195 176.663 347.788 175.928 346.975V352.062H174.121V337.434H175.771L175.859 338.605C176.595 337.694 177.617 337.238 178.926 337.238C180.195 337.238 181.198 337.717 181.934 338.674C182.676 339.631 183.047 340.962 183.047 342.668V342.834ZM181.24 342.629C181.24 341.438 180.986 340.497 180.479 339.807C179.971 339.117 179.274 338.771 178.389 338.771C177.295 338.771 176.475 339.257 175.928 340.227V345.275C176.468 346.239 177.295 346.721 178.408 346.721C179.274 346.721 179.961 346.379 180.469 345.695C180.983 345.005 181.24 343.983 181.24 342.629ZM187.314 348H185.508V337.434H187.314V348ZM185.361 334.631C185.361 334.338 185.449 334.09 185.625 333.889C185.807 333.687 186.074 333.586 186.426 333.586C186.777 333.586 187.044 333.687 187.227 333.889C187.409 334.09 187.5 334.338 187.5 334.631C187.5 334.924 187.409 335.168 187.227 335.363C187.044 335.559 186.777 335.656 186.426 335.656C186.074 335.656 185.807 335.559 185.625 335.363C185.449 335.168 185.361 334.924 185.361 334.631ZM196.367 345.197C196.367 344.709 196.182 344.331 195.811 344.064C195.446 343.791 194.805 343.557 193.887 343.361C192.975 343.166 192.249 342.932 191.709 342.658C191.175 342.385 190.778 342.059 190.518 341.682C190.264 341.304 190.137 340.855 190.137 340.334C190.137 339.468 190.501 338.736 191.23 338.137C191.966 337.538 192.904 337.238 194.043 337.238C195.241 337.238 196.211 337.548 196.953 338.166C197.702 338.785 198.076 339.576 198.076 340.539H196.26C196.26 340.044 196.048 339.618 195.625 339.26C195.208 338.902 194.681 338.723 194.043 338.723C193.385 338.723 192.871 338.866 192.5 339.152C192.129 339.439 191.943 339.813 191.943 340.275C191.943 340.712 192.116 341.04 192.461 341.262C192.806 341.483 193.428 341.695 194.326 341.896C195.231 342.098 195.964 342.339 196.523 342.619C197.083 342.899 197.497 343.238 197.764 343.635C198.037 344.025 198.174 344.504 198.174 345.07C198.174 346.014 197.796 346.773 197.041 347.346C196.286 347.912 195.306 348.195 194.102 348.195C193.255 348.195 192.507 348.046 191.855 347.746C191.204 347.447 190.693 347.03 190.322 346.496C189.958 345.956 189.775 345.373 189.775 344.748H191.582C191.615 345.354 191.855 345.835 192.305 346.193C192.76 346.545 193.359 346.721 194.102 346.721C194.785 346.721 195.332 346.584 195.742 346.311C196.159 346.031 196.367 345.66 196.367 345.197ZM204.766 346.721C205.41 346.721 205.973 346.525 206.455 346.135C206.937 345.744 207.204 345.256 207.256 344.67H208.965C208.932 345.275 208.724 345.852 208.34 346.398C207.956 346.945 207.441 347.382 206.797 347.707C206.159 348.033 205.482 348.195 204.766 348.195C203.327 348.195 202.181 347.717 201.328 346.76C200.482 345.796 200.059 344.481 200.059 342.814V342.512C200.059 341.483 200.247 340.568 200.625 339.768C201.003 338.967 201.543 338.345 202.246 337.902C202.956 337.46 203.792 337.238 204.756 337.238C205.941 337.238 206.924 337.593 207.705 338.303C208.493 339.012 208.913 339.934 208.965 341.066H207.256C207.204 340.383 206.943 339.823 206.475 339.387C206.012 338.944 205.439 338.723 204.756 338.723C203.838 338.723 203.125 339.055 202.617 339.719C202.116 340.376 201.865 341.33 201.865 342.58V342.922C201.865 344.139 202.116 345.077 202.617 345.734C203.118 346.392 203.835 346.721 204.766 346.721ZM212.959 348H211.152V337.434H212.959V348ZM211.006 334.631C211.006 334.338 211.094 334.09 211.27 333.889C211.452 333.687 211.719 333.586 212.07 333.586C212.422 333.586 212.689 333.687 212.871 333.889C213.053 334.09 213.145 334.338 213.145 334.631C213.145 334.924 213.053 335.168 212.871 335.363C212.689 335.559 212.422 335.656 212.07 335.656C211.719 335.656 211.452 335.559 211.27 335.363C211.094 335.168 211.006 334.924 211.006 334.631ZM217.568 337.434L217.627 338.762C218.434 337.746 219.489 337.238 220.791 337.238C223.024 337.238 224.15 338.498 224.17 341.018V348H222.363V341.008C222.357 340.246 222.181 339.683 221.836 339.318C221.497 338.954 220.967 338.771 220.244 338.771C219.658 338.771 219.144 338.928 218.701 339.24C218.258 339.553 217.913 339.963 217.666 340.471V348H215.859V337.434H217.568ZM226.465 342.629C226.465 340.982 226.846 339.673 227.607 338.703C228.369 337.727 229.378 337.238 230.635 337.238C231.924 337.238 232.93 337.694 233.652 338.605L233.74 337.434H235.391V347.746C235.391 349.113 234.984 350.191 234.17 350.979C233.363 351.766 232.275 352.16 230.908 352.16C230.146 352.16 229.401 351.997 228.672 351.672C227.943 351.346 227.386 350.9 227.002 350.334L227.939 349.25C228.714 350.207 229.661 350.686 230.781 350.686C231.66 350.686 232.344 350.438 232.832 349.943C233.327 349.449 233.574 348.752 233.574 347.854V346.945C232.852 347.779 231.865 348.195 230.615 348.195C229.378 348.195 228.376 347.697 227.607 346.701C226.846 345.705 226.465 344.348 226.465 342.629ZM228.281 342.834C228.281 344.025 228.525 344.963 229.014 345.646C229.502 346.324 230.186 346.662 231.064 346.662C232.204 346.662 233.04 346.145 233.574 345.109V340.285C233.021 339.276 232.191 338.771 231.084 338.771C230.205 338.771 229.518 339.113 229.023 339.797C228.529 340.48 228.281 341.493 228.281 342.834ZM247.471 348.195C246.038 348.195 244.873 347.727 243.975 346.789C243.076 345.845 242.627 344.585 242.627 343.01V342.678C242.627 341.63 242.826 340.695 243.223 339.875C243.626 339.048 244.186 338.404 244.902 337.941C245.625 337.473 246.406 337.238 247.246 337.238C248.62 337.238 249.688 337.691 250.449 338.596C251.211 339.501 251.592 340.796 251.592 342.482V343.234H244.434C244.46 344.276 244.762 345.119 245.342 345.764C245.928 346.402 246.67 346.721 247.568 346.721C248.206 346.721 248.747 346.59 249.189 346.33C249.632 346.07 250.02 345.725 250.352 345.295L251.455 346.154C250.57 347.515 249.242 348.195 247.471 348.195ZM247.246 338.723C246.517 338.723 245.905 338.99 245.41 339.523C244.915 340.051 244.609 340.793 244.492 341.75H249.785V341.613C249.733 340.695 249.486 339.986 249.043 339.484C248.6 338.977 248.001 338.723 247.246 338.723ZM255.654 348H253.848V333H255.654V348ZM260.518 348H258.711V337.434H260.518V348ZM258.564 334.631C258.564 334.338 258.652 334.09 258.828 333.889C259.01 333.687 259.277 333.586 259.629 333.586C259.98 333.586 260.247 333.687 260.43 333.889C260.612 334.09 260.703 334.338 260.703 334.631C260.703 334.924 260.612 335.168 260.43 335.363C260.247 335.559 259.98 335.656 259.629 335.656C259.277 335.656 259.01 335.559 258.828 335.363C258.652 335.168 258.564 334.924 258.564 334.631ZM265.869 334.875V337.434H267.842V338.83H265.869V345.383C265.869 345.806 265.957 346.125 266.133 346.34C266.309 346.548 266.608 346.652 267.031 346.652C267.24 346.652 267.526 346.613 267.891 346.535V348C267.415 348.13 266.953 348.195 266.504 348.195C265.697 348.195 265.088 347.951 264.678 347.463C264.268 346.975 264.062 346.281 264.062 345.383V338.83H262.139V337.434H264.062V334.875H265.869ZM270 347.053C270 346.74 270.091 346.48 270.273 346.271C270.462 346.063 270.742 345.959 271.113 345.959C271.484 345.959 271.764 346.063 271.953 346.271C272.148 346.48 272.246 346.74 272.246 347.053C272.246 347.352 272.148 347.603 271.953 347.805C271.764 348.007 271.484 348.107 271.113 348.107C270.742 348.107 270.462 348.007 270.273 347.805C270.091 347.603 270 347.352 270 347.053Z" fill="black"/>
<path d="M112.281 235.416C111.561 236.355 110.563 237.066 109.287 237.549C108.011 238.032 106.562 238.273 104.939 238.273C103.271 238.273 101.795 237.895 100.51 237.139C99.2246 236.382 98.2311 235.302 97.5293 233.898C96.8366 232.486 96.4766 230.84 96.4492 228.963V227.404C96.4492 224.396 97.1693 222.049 98.6094 220.363C100.049 218.668 102.059 217.82 104.639 217.82C106.854 217.82 108.613 218.367 109.916 219.461C111.219 220.555 112.003 222.132 112.268 224.191H108.877C108.494 221.794 107.104 220.596 104.707 220.596C103.158 220.596 101.977 221.156 101.166 222.277C100.364 223.389 99.9492 225.025 99.9219 227.186V228.717C99.9219 230.868 100.373 232.54 101.275 233.734C102.187 234.919 103.449 235.512 105.062 235.512C106.831 235.512 108.089 235.111 108.836 234.309V230.412H104.734V227.787H112.281V235.416ZM115.139 230.467C115.139 229.018 115.426 227.714 116 226.557C116.574 225.39 117.381 224.497 118.42 223.877C119.459 223.248 120.653 222.934 122.002 222.934C123.998 222.934 125.616 223.576 126.855 224.861C128.104 226.146 128.779 227.851 128.879 229.975L128.893 230.754C128.893 232.212 128.61 233.516 128.045 234.664C127.489 235.812 126.687 236.701 125.639 237.33C124.6 237.959 123.396 238.273 122.029 238.273C119.942 238.273 118.27 237.581 117.012 236.195C115.763 234.801 115.139 232.946 115.139 230.631V230.467ZM118.461 230.754C118.461 232.276 118.775 233.47 119.404 234.336C120.033 235.193 120.908 235.621 122.029 235.621C123.15 235.621 124.021 235.184 124.641 234.309C125.27 233.434 125.584 232.153 125.584 230.467C125.584 228.972 125.26 227.787 124.613 226.912C123.975 226.037 123.105 225.6 122.002 225.6C120.917 225.6 120.056 226.033 119.418 226.898C118.78 227.755 118.461 229.04 118.461 230.754ZM142.838 219.611V223.207H145.449V225.668H142.838V233.926C142.838 234.491 142.947 234.901 143.166 235.156C143.394 235.402 143.795 235.525 144.369 235.525C144.752 235.525 145.139 235.48 145.531 235.389V237.959C144.775 238.169 144.046 238.273 143.344 238.273C140.792 238.273 139.516 236.865 139.516 234.049V225.668H137.082V223.207H139.516V219.611H142.838ZM146.967 230.467C146.967 229.018 147.254 227.714 147.828 226.557C148.402 225.39 149.209 224.497 150.248 223.877C151.287 223.248 152.481 222.934 153.83 222.934C155.826 222.934 157.444 223.576 158.684 224.861C159.932 226.146 160.607 227.851 160.707 229.975L160.721 230.754C160.721 232.212 160.438 233.516 159.873 234.664C159.317 235.812 158.515 236.701 157.467 237.33C156.428 237.959 155.225 238.273 153.857 238.273C151.77 238.273 150.098 237.581 148.84 236.195C147.591 234.801 146.967 232.946 146.967 230.631V230.467ZM150.289 230.754C150.289 232.276 150.604 233.47 151.232 234.336C151.861 235.193 152.736 235.621 153.857 235.621C154.979 235.621 155.849 235.184 156.469 234.309C157.098 233.434 157.412 232.153 157.412 230.467C157.412 228.972 157.089 227.787 156.441 226.912C155.803 226.037 154.933 225.6 153.83 225.6C152.745 225.6 151.884 226.033 151.246 226.898C150.608 227.755 150.289 229.04 150.289 230.754ZM186.014 231.52C185.813 233.643 185.029 235.302 183.662 236.496C182.295 237.681 180.477 238.273 178.207 238.273C176.621 238.273 175.222 237.9 174.01 237.152C172.807 236.396 171.877 235.325 171.221 233.939C170.564 232.554 170.223 230.945 170.195 229.113V227.254C170.195 225.376 170.528 223.722 171.193 222.291C171.859 220.86 172.811 219.757 174.051 218.982C175.299 218.208 176.74 217.82 178.371 217.82C180.568 217.82 182.336 218.417 183.676 219.611C185.016 220.805 185.795 222.492 186.014 224.67H182.568C182.404 223.239 181.985 222.209 181.311 221.58C180.645 220.942 179.665 220.623 178.371 220.623C176.867 220.623 175.71 221.174 174.898 222.277C174.096 223.371 173.686 224.98 173.668 227.104V228.867C173.668 231.018 174.051 232.659 174.816 233.789C175.591 234.919 176.721 235.484 178.207 235.484C179.565 235.484 180.586 235.179 181.27 234.568C181.953 233.958 182.386 232.941 182.568 231.52H186.014ZM188.174 230.467C188.174 229.018 188.461 227.714 189.035 226.557C189.609 225.39 190.416 224.497 191.455 223.877C192.494 223.248 193.688 222.934 195.037 222.934C197.033 222.934 198.651 223.576 199.891 224.861C201.139 226.146 201.814 227.851 201.914 229.975L201.928 230.754C201.928 232.212 201.645 233.516 201.08 234.664C200.524 235.812 199.722 236.701 198.674 237.33C197.635 237.959 196.432 238.273 195.064 238.273C192.977 238.273 191.305 237.581 190.047 236.195C188.798 234.801 188.174 232.946 188.174 230.631V230.467ZM191.496 230.754C191.496 232.276 191.811 233.47 192.439 234.336C193.068 235.193 193.943 235.621 195.064 235.621C196.186 235.621 197.056 235.184 197.676 234.309C198.305 233.434 198.619 232.153 198.619 230.467C198.619 228.972 198.296 227.787 197.648 226.912C197.01 226.037 196.14 225.6 195.037 225.6C193.952 225.6 193.091 226.033 192.453 226.898C191.815 227.755 191.496 229.04 191.496 230.754ZM204.115 230.494C204.115 228.215 204.644 226.388 205.701 225.012C206.758 223.626 208.176 222.934 209.953 222.934C211.521 222.934 212.788 223.48 213.754 224.574V217H217.076V238H214.068L213.904 236.469C212.911 237.672 211.585 238.273 209.926 238.273C208.194 238.273 206.79 237.576 205.715 236.182C204.648 234.787 204.115 232.891 204.115 230.494ZM207.438 230.781C207.438 232.285 207.725 233.461 208.299 234.309C208.882 235.147 209.707 235.566 210.773 235.566C212.132 235.566 213.125 234.96 213.754 233.748V227.432C213.143 226.247 212.159 225.654 210.801 225.654C209.725 225.654 208.896 226.083 208.312 226.939C207.729 227.787 207.438 229.068 207.438 230.781ZM227.057 238.273C224.951 238.273 223.242 237.613 221.93 236.291C220.626 234.96 219.975 233.192 219.975 230.986V230.576C219.975 229.1 220.257 227.783 220.822 226.625C221.396 225.458 222.199 224.551 223.229 223.904C224.258 223.257 225.407 222.934 226.674 222.934C228.688 222.934 230.242 223.576 231.336 224.861C232.439 226.146 232.99 227.965 232.99 230.316V231.656H223.324C223.424 232.878 223.83 233.844 224.541 234.555C225.261 235.266 226.163 235.621 227.248 235.621C228.77 235.621 230.01 235.006 230.967 233.775L232.758 235.484C232.165 236.368 231.372 237.057 230.379 237.549C229.395 238.032 228.287 238.273 227.057 238.273ZM226.66 225.6C225.749 225.6 225.01 225.919 224.445 226.557C223.889 227.195 223.534 228.083 223.379 229.223H229.709V228.977C229.636 227.865 229.34 227.026 228.82 226.461C228.301 225.887 227.581 225.6 226.66 225.6Z" fill="black"/>
<circle cx="172" cy="75" r="73" stroke="#0082F4" stroke-width="4"/>
<path d="M204.762 61.7459L199.86 53.254C199.568 52.7489 198.949 52.5356 198.408 52.7539L191.191 55.6673C190.591 55.9092 190.302 56.5912 190.543 57.1907C190.785 57.7904 191.467 58.0802 192.067 57.8379L198.341 55.3053L202.226 62.0356L196.903 66.1972C196.521 66.496 196.363 66.9993 196.505 67.4629C197.979 72.2629 198.036 77.5534 196.505 82.5368C196.363 83.0004 196.521 83.5037 196.903 83.8025L202.226 87.9641L198.341 94.6944L192.067 92.1618C191.617 91.9799 191.102 92.0948 190.772 92.45C187.248 96.2386 182.737 98.8454 177.727 99.9886C177.254 100.097 176.896 100.486 176.828 100.967L175.886 107.659H168.114L167.172 100.967C167.104 100.486 166.746 100.097 166.273 99.9889C161.263 98.8457 156.752 96.2388 153.228 92.4503C152.898 92.0951 152.383 91.9802 151.933 92.1621L145.659 94.6946L141.773 87.9644L147.097 83.8028C147.479 83.504 147.637 83.0007 147.495 82.5371C146.02 77.737 145.964 72.4466 147.495 67.4632C147.637 66.9995 147.479 66.4962 147.097 66.1975L141.773 62.0359L145.659 55.3056L151.933 57.8382C152.383 58.0201 152.898 57.9052 153.228 57.55C156.752 53.7614 161.263 51.1546 166.273 50.0114C166.746 49.9034 167.104 49.5144 167.172 49.0334L168.114 42.3412H175.886L176.828 49.0334C176.896 49.5142 177.254 49.9032 177.727 50.0114C180.47 50.6373 183.078 51.7088 185.478 53.1956C186.028 53.5358 186.749 53.3663 187.089 52.8171C187.43 52.2676 187.26 51.546 186.711 51.2055C184.322 49.7253 181.743 48.6223 179.036 47.9209L178.062 41.0075C177.981 40.43 177.486 40.0003 176.903 40.0003H167.097C166.514 40.0003 166.02 40.43 165.938 41.0075L164.965 47.9209C160.069 49.1877 155.641 51.7467 152.074 55.3707L145.592 52.7543C145.052 52.5358 144.432 52.7492 144.141 53.2544L139.238 61.7464C138.946 62.2516 139.071 62.8945 139.531 63.2538L145.031 67.5538C143.693 72.4094 143.693 77.5903 145.031 82.4471L139.531 86.7471C139.071 87.1064 138.946 87.7493 139.238 88.2545L144.141 96.7465C144.432 97.2517 145.051 97.465 145.592 97.2465L152.074 94.6301C155.641 98.2542 160.069 100.813 164.965 102.08L165.938 108.993C166.019 109.57 166.514 110 167.097 110H176.903C177.486 110 177.981 109.57 178.062 108.993L179.036 102.079C183.931 100.813 188.359 98.2536 191.926 94.6295L198.408 97.246C198.949 97.4641 199.568 97.2512 199.86 96.7459L204.762 88.2539C205.054 87.7487 204.929 87.1058 204.47 86.7465L198.969 82.4465C200.307 77.5909 200.308 72.41 198.969 67.5532L204.47 63.2532C204.929 62.894 205.054 62.2513 204.762 61.7459ZM170.083 69.4321L175.935 79.3809C176.263 79.9382 176.077 80.6556 175.52 80.9833C174.963 81.3109 174.245 81.1251 173.917 80.5679L168.065 70.619C167.737 70.0618 167.923 69.3444 168.48 69.0167C169.038 68.689 169.755 68.8751 170.083 69.4321ZM165.512 79.487C165.055 79.9438 164.314 79.9439 163.857 79.487L160.198 75.8276C159.741 75.3707 159.741 74.6295 160.198 74.1723L163.857 70.5128C164.314 70.0558 165.055 70.0559 165.512 70.5128C165.969 70.97 165.969 71.7111 165.512 72.1681L162.68 74.9998L165.512 77.8314C165.969 78.2888 165.969 79.0298 165.512 79.487ZM179.169 70.17C179.469 70.17 179.768 70.2843 179.997 70.5128L183.656 74.1724C184.113 74.6293 184.113 75.3705 183.656 75.8277L179.997 79.4872C179.54 79.9441 178.799 79.9441 178.342 79.4872C177.884 79.03 177.884 78.2889 178.342 77.8318L181.173 75.0002L178.342 72.1684C177.602 71.4283 178.136 70.17 179.169 70.17ZM165.15 56.3184C167.384 55.4992 169.701 55.0914 172.011 55.0916C186.47 55.0923 196.161 70.1896 190.053 83.3671C185.44 93.3213 173.588 97.6666 163.633 93.0532C150.977 87.1878 148.108 70.3238 158.23 60.6298C158.697 60.1825 159.438 60.1986 159.885 60.6655C160.332 61.1322 160.316 61.8732 159.849 62.3203C150.924 70.8685 153.445 85.7513 164.617 90.9293C173.401 95 183.858 91.1662 187.929 82.3827C192 73.5995 188.166 63.1417 179.382 59.0709C175.127 57.0988 170.359 56.9019 165.956 58.5162C165.349 58.7384 164.676 58.427 164.454 57.8202C164.232 57.2132 164.543 56.5408 165.15 56.3184Z" fill="#0082F4"/>
</svg>
